<svg xmlns:dc="http://purl.org/dc/elements/1.1/" xmlns:cc="http://creativecommons.org/ns#" xmlns:rdf="http://www.w3.org/1999/02/22-rdf-syntax-ns#" xmlns:svg="http://www.w3.org/2000/svg" xmlns="http://www.w3.org/2000/svg" xmlns:sodipodi="http://sodipodi.sourceforge.net/DTD/sodipodi-0.dtd" xmlns:inkscape="http://www.inkscape.org/namespaces/inkscape" viewBox="0 0 32 32" version="1.1" x="0px" y="0px"><g transform="translate(0,-1020.3622)"><path style="text-indent:0;text-transform:none;direction:ltr;block-progression:tb;baseline-shift:baseline;color:#000000;enable-background:accumulate;" d="m 16,1034.375 c -4.230277,0 -7.9999999,3.7697 -8,8 10e-8,4.2303 3.769723,8 8,8 4.230278,0 8,-3.7697 8,-8 0,-4.2303 -3.769722,-8 -8,-8 z m 0,1 c 3.623705,0 7,3.3763 7,7 0,3.6237 -3.376295,7 -7,7 -3.623704,0 -7,-3.3763 -7,-7 0,-3.6237 3.376296,-7 7,-7 z" fill="#000000" fill-opacity="1" stroke="none" marker="none" visibility="visible" display="inline" overflow="visible"></path><path style="text-indent:0;text-transform:none;direction:ltr;block-progression:tb;baseline-shift:baseline;color:#000000;enable-background:accumulate;" d="m 16,1036.875 c -2.921242,0 -5.499942,2.5788 -5.5,5.5 0,2.9213 2.57872,5.5 5.5,5.5 2.92128,0 5.5,-2.5787 5.5,-5.5 -5.8e-5,-2.9212 -2.578758,-5.5 -5.5,-5.5 z m 0,1 c 2.314679,0 4.499954,2.1853 4.5,4.5 0,2.3147 -2.185293,4.5 -4.5,4.5 -2.314707,0 -4.5,-2.1853 -4.5,-4.5 4.6e-5,-2.3147 2.185321,-4.5 4.5,-4.5 z" fill="#000000" fill-opacity="1" stroke="none" marker="none" visibility="visible" display="inline" overflow="visible"></path><path style="text-indent:0;text-transform:none;direction:ltr;block-progression:tb;baseline-shift:baseline;color:#000000;enable-background:accumulate;" d="m 15.90625,1039.3438 a 0.50005018,0.50005018 0 0 0 -0.375,0.3124 l -0.625,1.4688 -1.6875,0.1562 a 0.50005018,0.50005018 0 0 0 -0.28125,0.875 l 1.25,1 -0.34375,1.5938 a 0.50005018,0.50005018 0 0 0 0.75,0.5625 l 1.375,-0.8437 1.5,0.8124 a 0.50005018,0.50005018 0 0 0 0.71875,-0.5624 l -0.40625,-1.5 1.28125,-1.0938 a 0.50005018,0.50005018 0 0 0 -0.28125,-0.875 l -1.65625,-0.094 -0.6875,-1.5 a 0.50005018,0.50005018 0 0 0 -0.53125,-0.3124 z m 0.09375,1.75 0.34375,0.75 a 0.50005018,0.50005018 0 0 0 0.4375,0.2812 l 0.6875,0.031 -0.5625,0.5 a 0.50005018,0.50005018 0 0 0 -0.15625,0.5313 l 0.15625,0.625 -0.6875,-0.375 a 0.50005018,0.50005018 0 0 0 -0.5,0.031 l -0.65625,0.375 0.15625,-0.75 a 0.50005018,0.50005018 0 0 0 -0.15625,-0.5 l -0.5625,-0.4376 0.8125,-0.094 a 0.50005018,0.50005018 0 0 0 0.40625,-0.2813 L 16,1041.0938 z" fill="#000000" fill-opacity="1" stroke="none" marker="none" visibility="visible" display="inline" overflow="visible"></path><path style="text-indent:0;text-transform:none;direction:ltr;block-progression:tb;baseline-shift:baseline;color:#000000;enable-background:accumulate;" d="m 11.84375,1032.375 a 0.50004997,0.50004997 0 0 0 -0.34375,0.5 l 0,2.9688 a 0.50004997,0.50004997 0 1 0 1,0 l 0,-2.4688 7,0 0,2.4688 a 0.50004997,0.50004997 0 1 0 1,0 l 0,-2.9688 a 0.50004997,0.50004997 0 0 0 -0.5,-0.5 l -8,0 a 0.50004997,0.50004997 0 0 0 -0.15625,0 z" fill="#000000" fill-opacity="1" stroke="none" marker="none" visibility="visible" display="inline" overflow="visible"></path><path style="text-indent:0;text-transform:none;direction:ltr;block-progression:tb;baseline-shift:baseline;color:#000000;enable-background:accumulate;" d="m 4.84375,1022.375 a 0.50004997,0.50004997 0 0 0 -0.25,0.75 l 6.96875,10.5 a 0.50004997,0.50004997 0 1 0 0.84375,-0.5312 l -6.46875,-9.7188 4.8125,0 4.84375,6.7812 a 0.50314907,0.50314907 0 1 0 0.8125,-0.5937 l -5,-7 A 0.50004997,0.50004997 0 0 0 11,1022.375 l -6,0 a 0.50004997,0.50004997 0 0 0 -0.15625,0 z" fill="#000000" fill-opacity="1" stroke="none" marker="none" visibility="visible" display="inline" overflow="visible"></path><path style="text-indent:0;text-transform:none;direction:ltr;block-progression:tb;baseline-shift:baseline;color:#000000;enable-background:accumulate;" d="m 20.84375,1022.375 a 0.50004991,0.50004991 0 0 0 -0.25,0.1875 l -7,10 a 0.50314907,0.50314907 0 1 0 0.8125,0.5937 l 6.84375,-9.7812 4.8125,0 -6.46875,9.7188 a 0.50004991,0.50004991 0 1 0 0.8125,0.5312 l 7,-10.5 A 0.50004991,0.50004991 0 0 0 27,1022.375 l -6,0 a 0.50004991,0.50004991 0 0 0 -0.15625,0 z" fill="#000000" fill-opacity="1" stroke="none" marker="none" visibility="visible" display="inline" overflow="visible"></path></g></svg>