<svg xmlns="http://www.w3.org/2000/svg" xmlns:xlink="http://www.w3.org/1999/xlink" version="1.1" x="0px" y="0px" viewBox="0 0 100 100" style="enable-background:new 0 0 100 100;" xml:space="preserve"><style type="text/css">
	.st0{fill:none;stroke:#000000;stroke-width:4;stroke-miterlimit:10;}
</style><path d="M86,52.9c-3.4,0-6.4,1.9-7.9,4.8L59,51.3c0.1-0.5,0.1-0.9,0.1-1.4c0-0.5,0-0.9-0.1-1.4l19.1-6.4c1.5,2.8,4.5,4.8,7.9,4.8  c5,0,9-4,9-9s-4-9-9-9c-5,0-9,4-9,9c0,0.5,0,0.9,0.1,1.4L58,45.7c-0.9-1.6-2.2-2.9-3.8-3.7l6.4-19.1c0.5,0.1,0.9,0.1,1.4,0.1  c5,0,9-4,9-9c0-5-4-9-9-9c-5,0-9,4-9,9c0,3.4,1.9,6.4,4.8,7.9l-6.4,19.1c-0.1,0-0.3,0-0.5,0c-0.1,0-0.3,0-0.4,0c-0.1,0-0.3,0-0.4,0  c0,0,0,0-0.1,0c0,0,0,0,0,0c0,0,0,0,0,0c0,0,0,0,0,0c-0.1,0-0.3,0-0.4,0c-0.1,0-0.3,0-0.4,0c-0.2,0-0.3,0-0.5,0l-6.4-19.1  C45,20.4,47,17.4,47,14c0-5-4-9-9-9s-9,4-9,9c0,5,4,9,9,9c0.5,0,0.9,0,1.4-0.1L45.7,42c-1.6,0.8-2.9,2.1-3.8,3.7l-19.1-6.4  c0.1-0.5,0.1-0.9,0.1-1.4c0-5-4-9-9-9c-5,0-9,4-9,9c0,5,4,9,9,9c3.4,0,6.4-1.9,7.9-4.8L41,48.6c-0.1,0.5-0.1,0.9-0.1,1.4  c0,0.5,0,0.9,0.1,1.4l-19.1,6.4c-1.5-2.8-4.5-4.8-7.9-4.8c-5,0-9,4-9,9c0,5,4,9,9,9c5,0,9-4,9-9c0-0.5,0-0.9-0.1-1.4L42,54.2  c0,0.1,0.1,0.1,0.1,0.2c0.8,1.5,2.1,2.8,3.7,3.6l-6.4,19.1C38.9,77.1,38.5,77,38,77c-5,0-9,4-9,9c0,5,4,9,9,9c5,0,9-4,9-9  c0-3.4-1.9-6.4-4.8-7.9l6.4-19.1C49,59,49.5,59,50,59c0.5,0,0.9,0,1.4-0.1l6.4,19.1C54.9,79.6,53,82.6,53,86c0,5,4,9,9,9s9-4,9-9  c0-5-4-9-9-9c-0.5,0-0.9,0-1.4,0.1L54.2,58c0.5-0.3,1-0.6,1.5-1c0,0,0.1-0.1,0.1-0.1c0.2-0.2,0.4-0.3,0.6-0.5  c0.2-0.2,0.4-0.4,0.5-0.6c0,0,0.1-0.1,0.1-0.1c0.4-0.5,0.7-1,1-1.5l19.1,6.4C77.1,61,77,61.5,77,61.9c0,5,4,9,9,9c5,0,9-4,9-9  S91,52.9,86,52.9z"></path></svg>