<svg xmlns="http://www.w3.org/2000/svg" xmlns:xlink="http://www.w3.org/1999/xlink" version="1.1" x="0px" y="0px" viewBox="0 0 512 512" enable-background="new 0 0 512 512" xml:space="preserve"><g><path d="M472.9,290V49.6c9.5-3.4,16.4-12.4,16.4-23c0-13.5-11-24.6-24.6-24.6H47.3C33.7,2,22.7,13,22.7,26.6   c0,10.7,6.9,19.7,16.4,23V290c-9.5,3.4-16.4,12.4-16.4,23c0,13.5,11,24.6,24.6,24.6h188.3v31l-99.7,99.7c-9.7,9.7-7.7,26.3,0,34.1   c9.1,9.1,25,9.1,34.1,0l65.6-65.6v48.1c0,13.5,11,24.6,24.6,24.6c13.5,0,24.6-11,24.6-24.6v-48.1l65.6,65.6c9,9,22.9,11.1,34.1,0   c10.8-10.8,9-25,0-34.1l-99.7-99.7v-31h180.1c13.5,0,24.6-11,24.6-24.6C489.3,302.4,482.4,293.4,472.9,290z M47.3,18.4h417.4   c4.5,0,8.2,3.7,8.2,8.2s-3.7,8.2-8.2,8.2H47.3c-4.5,0-8.2-3.7-8.2-8.2S42.8,18.4,47.3,18.4z M456.5,51.1v237.4H55.5V51.1H456.5z    M372.8,479.9c2.9,2.9,2.8,8.1,0,10.9c-2.9,2.9-8,2.9-10.9,0l-93.6-93.6v87.6c0,4.5-3.7,8.2-8.2,8.2c-4.5,0-8.2-3.7-8.2-8.2v-87.6   l-93.6,93.6c-2.9,2.9-8,2.9-10.9,0c-4-4-1.5-9.5,0-10.9l104.5-104.5v-37.8h16.4v37.8L372.8,479.9z M464.7,321.2H47.3   c-4.5,0-8.2-3.7-8.2-8.2c0-4.5,3.7-8.2,8.2-8.2h417.4c4.5,0,8.2,3.7,8.2,8.2C472.9,317.5,469.2,321.2,464.7,321.2z"></path><path d="M96.4,272.1c13.5,0,24.6-11,24.6-24.6c0-3.8-0.9-7.3-2.5-10.5l51.6-51.6l40.9,40.9l73.7-73.7l57.3,57.3l63.1-63.1   c3.2,1.5,6.7,2.5,10.5,2.5c13.5,0,24.6-11,24.6-24.6c0-13.5-11-24.6-24.6-24.6c-13.5,0-24.6,11-24.6,24.6c0,3.8,0.9,7.3,2.5,10.5   l-51.6,51.6l-57.3-57.3L211,203.2l-40.9-40.9l-63.1,63.1c-3.2-1.5-6.7-2.5-10.5-2.5c-13.5,0-24.6,11-24.6,24.6   C71.8,261.1,82.9,272.1,96.4,272.1z M415.6,116.6c4.5,0,8.2,3.7,8.2,8.2s-3.7,8.2-8.2,8.2s-8.2-3.7-8.2-8.2   S411.1,116.6,415.6,116.6z M96.4,239.4c4.5,0,8.2,3.7,8.2,8.2c0,4.5-3.7,8.2-8.2,8.2s-8.2-3.7-8.2-8.2   C88.2,243,91.9,239.4,96.4,239.4z"></path></g></svg>