<svg xmlns="http://www.w3.org/2000/svg" xmlns:xlink="http://www.w3.org/1999/xlink" version="1.1" x="0px" y="0px" viewBox="0 0 512 512" enable-background="new 0 0 512 512" xml:space="preserve"><g><path d="M495.9,2H16.1C8.3,2,2,8.3,2,16.1v332.6c0,7.8,6.3,14.1,14.1,14.1h231.4c7,18.6,20,34.3,36.7,44.7v88.3   c0,5.4,3,10.2,7.8,12.6c4.8,2.4,10.5,1.9,14.8-1.4l24.3-18.3l24.3,18.3c2.5,1.9,10.1,3.6,14.8,1.4c4.8-2.3,7.8-7.3,7.8-12.6v-88.3   c16.7-10.4,29.7-26.1,36.7-44.8h81.3c7.8,0,14.1-6.3,14.1-14.1V16.1C510,8.3,503.7,2,495.9,2z M349.7,467.6l-10.1-7.7   c-5-3.8-12-3.8-17,0l-10.1,7.7v-48.5c12.2,2.6,25.1,2.6,37.3,0V467.6z M331.1,392.8c-33.6,0-60.9-27.3-60.9-60.9   c0-33.6,27.3-60.9,60.9-60.9c33.6,0,60.9,27.3,60.9,60.9C392,365.5,364.7,392.8,331.1,392.8z M481.8,334.6h-61.7   c0-0.9,0.1-1.8,0.1-2.7c0-49.2-40-89.1-89.1-89.1c-49.2,0-89.1,40-89.1,89.1c0,0.9,0.1,1.8,0.1,2.7H30.2V30.2h451.6V334.6z"></path><path d="M81.3,96.8h132.4c7.8,0,14.1-6.3,14.1-14.1s-6.3-14.1-14.1-14.1H81.3c-7.8,0-14.1,6.3-14.1,14.1S73.5,96.8,81.3,96.8z"></path><path d="M81.3,229.8h349.5c7.8,0,14.1-6.3,14.1-14.1s-6.3-14.1-14.1-14.1H81.3c-7.8,0-14.1,6.3-14.1,14.1S73.5,229.8,81.3,229.8z"></path><path d="M81.3,296.3h132.4c7.8,0,14.1-6.3,14.1-14.1c0-7.8-6.3-14.1-14.1-14.1H81.3c-7.8,0-14.1,6.3-14.1,14.1   C67.1,290,73.5,296.3,81.3,296.3z"></path><path d="M81.3,163.3h349.5c7.8,0,14.1-6.3,14.1-14.1c0-7.8-6.3-14.1-14.1-14.1H81.3c-7.8,0-14.1,6.3-14.1,14.1   C67.1,157,73.5,163.3,81.3,163.3z"></path></g></svg>