<svg xmlns="http://www.w3.org/2000/svg" xmlns:xlink="http://www.w3.org/1999/xlink" version="1.1" x="0px" y="0px" viewBox="0 0 8 8" enable-background="new 0 0 8 8" xml:space="preserve"><path fill="#fff" d="M4.712,6.707c-0.392,0.391-1.024,0.391-1.415,0L0.292,3.706c-0.39-0.392-0.39-1.023,0-1.413c0.39-0.391,1.025-0.391,1.415,0  l3.005,3.002C5.102,5.685,5.102,6.316,4.712,6.707L4.712,6.707z M7.707,3.706L4.703,6.707c-0.391,0.391-1.023,0.391-1.415,0  c-0.389-0.391-0.389-1.022,0-1.412l3.005-3.002c0.392-0.391,1.024-0.391,1.414,0C8.098,2.683,8.098,3.314,7.707,3.706L7.707,3.706z"></path></svg>